<?xml version="1.0" encoding="iso-8859-1"?>
<!-- Generator: Adobe Illustrator 19.1.0, SVG Export Plug-In . SVG Version: 6.00 Build 0)  -->
<svg version="1.1" id="Capa_1" xmlns="http://www.w3.org/2000/svg" xmlns:xlink="http://www.w3.org/1999/xlink" x="0px" y="0px"
	 viewBox="0 0 513.679 513.679" style="enable-background:new 0 0 513.679 513.679;" xml:space="preserve">
<g>
	<g>
		<path d="M509.995,441.375L280.21,45.192c-4.896-8.425-13.628-13.448-23.367-13.448c-9.739,0-18.488,5.023-23.367,13.448
			L3.691,441.375c-4.915,8.461-4.915,18.561-0.036,27.04c4.878,8.461,13.628,13.52,23.403,13.52H486.61
			c9.776,0,18.525-5.058,23.421-13.52C514.91,459.936,514.892,449.836,509.995,441.375z M494.423,459.414
			c-0.792,1.369-3.114,4.519-7.813,4.519H27.058c-4.699,0-7.021-3.151-7.813-4.519c-0.774-1.35-2.34-4.932,0.018-9.001
			L249.03,54.229c2.358-4.051,6.229-4.483,7.795-4.483c1.566,0,5.437,0.432,7.795,4.483l229.785,396.184
			C496.763,454.481,495.197,458.064,494.423,459.414z"/>
		<rect x="238.823" y="184.892" width="18.003" height="180.026"/>
		<rect x="238.823" y="391.922" width="18.003" height="18.003"/>
	</g>
</g>
<g>
</g>
<g>
</g>
<g>
</g>
<g>
</g>
<g>
</g>
<g>
</g>
<g>
</g>
<g>
</g>
<g>
</g>
<g>
</g>
<g>
</g>
<g>
</g>
<g>
</g>
<g>
</g>
<g>
</g>
</svg>
