<?xml version="1.0" encoding="iso-8859-1"?>
<!-- Generator: Adobe Illustrator 19.0.0, SVG Export Plug-In . SVG Version: 6.00 Build 0)  -->
<svg version="1.1" id="Layer_1" xmlns="http://www.w3.org/2000/svg" xmlns:xlink="http://www.w3.org/1999/xlink" x="0px" y="0px"
	 viewBox="0 0 512 512" style="enable-background:new 0 0 512 512;" xml:space="preserve">
<g>
	<g>
		<path d="M414.265,341.072c19.335-11.869,32.261-33.204,32.261-57.506v-24.695c0.044-0.328,0.074-0.658,0.074-0.993v-25.811
			c0-20.253-8.977-38.436-23.146-50.82c-4.56-22.994-12.803-44.873-24.556-65.155l36.346-36.346c1.94-1.941,2.666-4.787,1.891-7.421
			c-0.775-2.634-2.928-4.632-5.61-5.211l-39.276-8.479L379.404,45.79l-8.479-39.276c-0.579-2.684-2.579-4.836-5.211-5.611
			c-2.635-0.776-5.48-0.05-7.422,1.891l-36.032,36.031C289.473,19.479,252.102,9.276,213.784,9.276
			c-57.104,0-110.791,22.237-151.168,62.616C22.238,112.27,0,165.957,0,223.061c0,57.104,22.237,110.79,62.616,151.168
			c40.378,40.378,94.064,62.616,151.168,62.616c12.27,0,24.518-1.059,36.565-3.136c-2.709,9.963-4.159,20.334-4.159,30.94v39.255
			c0,4.141,3.357,7.499,7.499,7.499h42.346c4.143,0,7.499-3.358,7.499-7.499c0-4.142-3.357-7.499-7.499-7.499h-34.846v-31.756
			c0-12.905,2.403-25.563,7.013-37.543c0.093-0.189,0.189-0.376,0.267-0.575c9.672-24.627,28.567-45.709,52.162-59.304
			c0.172-0.099,0.345-0.197,0.518-0.295c0.647-0.369,1.301-0.728,1.955-1.085c0.488-0.265,0.976-0.533,1.467-0.791
			c0.163-0.087,0.328-0.169,0.492-0.255c6.345-3.305,12.953-6.054,19.723-8.216l11.991,23.296l-16.075,69.784
			c-0.607,2.634,0.251,5.39,2.245,7.215l31.086,28.452c1.433,1.312,3.248,1.967,5.062,1.967c1.816,0,3.631-0.656,5.063-1.967
			l31.087-28.452c1.994-1.825,2.852-4.581,2.245-7.215l-16.075-69.784l11.991-23.296c17.718,5.658,34.326,15.364,48.042,28.396
			c22.927,21.783,35.555,50.077,35.555,79.668v31.756H321.033c-4.143,0-7.499,3.358-7.499,7.499c0,4.142,3.357,7.499,7.499,7.499
			h183.467c4.143,0,7.499-3.358,7.499-7.499v-39.255C512,407.392,469.885,356.959,414.265,341.072z M412.48,191.591
			c11.628,9.625,19.05,24.162,19.05,40.401v17.664c-23.803-4.516-33.443-28.734-33.871-29.842c-1.041-2.746-3.588-4.63-6.516-4.825
			c-2.933-0.197-5.703,1.337-7.097,3.922c-0.16,0.297-15.668,28.132-57.382,31.2v-16.677c0.246-2.701,0.399-5.426,0.452-8.177
			c2.668-20.102,17.077-37.443,36.869-43.451c0.074-0.022,0.144-0.053,0.216-0.078c3.9-1.158,7.983-1.885,12.202-2.1
			c0.892-0.045,1.791-0.068,2.695-0.068c0.843,0,1.68,0.024,2.514,0.064c0.234,0.011,0.467,0.03,0.701,0.044
			c0.612,0.037,1.222,0.081,1.829,0.14c0.245,0.023,0.49,0.051,0.735,0.078c0.612,0.067,1.222,0.145,1.828,0.233
			c0.212,0.031,0.424,0.061,0.635,0.095c0.674,0.107,1.343,0.227,2.008,0.359c0.139,0.028,0.28,0.052,0.418,0.081
			c1.628,0.338,3.228,0.751,4.796,1.236c0.248,0.077,0.492,0.163,0.739,0.244c0.478,0.156,0.955,0.315,1.427,0.484
			c0.45,0.163,0.898,0.334,1.344,0.509c0.229,0.089,0.458,0.179,0.686,0.271c0.596,0.244,1.189,0.495,1.777,0.762
			c0.017,0.008,0.034,0.015,0.051,0.023c4.003,1.822,7.801,4.169,11.331,7.019C412.094,191.347,412.29,191.464,412.48,191.591z
			 M323.398,193.979c-3.372-12.792-9.002-24.881-16.743-35.894l19.806-19.806l10.441,2.254c6.232,9.277,11.377,19.2,15.356,29.607
			C340.544,175.236,330.548,183.555,323.398,193.979z M405.372,169.886c-7.072-3-14.758-4.827-22.811-5.237
			c-1.148-0.058-2.304-0.088-3.466-0.088s-2.318,0.03-3.466,0.088c-3.066,0.156-6.071,0.535-9.017,1.088
			c-2.69-7.167-5.867-14.134-9.536-20.848l6.716,1.45c0.289,0.062,0.579,0.103,0.869,0.131c0.102,0.01,0.204,0.01,0.306,0.016
			c0.136,0.007,0.272,0.021,0.408,0.021c0.054,0,0.107-0.007,0.161-0.008c0.106-0.002,0.211-0.009,0.317-0.016
			c0.181-0.012,0.361-0.03,0.54-0.055c0.106-0.014,0.211-0.028,0.316-0.047c0.204-0.037,0.405-0.085,0.604-0.138
			c0.072-0.019,0.145-0.032,0.216-0.054c0.26-0.078,0.515-0.172,0.766-0.278c0.087-0.037,0.171-0.08,0.256-0.12
			c0.173-0.081,0.343-0.166,0.51-0.26c0.09-0.051,0.179-0.104,0.267-0.159c0.166-0.103,0.328-0.214,0.486-0.33
			c0.072-0.053,0.146-0.104,0.216-0.16c0.225-0.178,0.443-0.366,0.649-0.572l12.603-12.602l4.619-4.619
			C395.409,140.668,401.253,154.988,405.372,169.886z M389.642,75.099l1.385-1.385l23.883,5.156l-51.947,51.946l-23.882-5.156
			L389.642,75.099z M372.474,60.072l5.492,5.492l-59.221,59.221l-27.265,27.265l-0.001,0.001l-37.684,37.684
			c-0.001,0.001-0.002,0.001-0.003,0.002l-29.306,29.306v0.001c-0.742,0.742-1.608,0.852-2.059,0.852
			c-0.113,0-0.251-0.007-0.407-0.029c-0.468-0.066-1.095-0.268-1.652-0.825l-1.374-1.373c-1.136-1.136-1.136-2.984,0-4.119
			l29.567-29.566c0.002-0.002,0.004-0.005,0.006-0.007l37.547-37.547c0.001-0.002,0.003-0.003,0.004-0.005l27.125-27.125
			c0.004-0.003,0.007-0.006,0.01-0.009L372.474,60.072z M208.391,228.274l1.374,1.373c3.384,3.383,7.881,5.246,12.665,5.246
			c4.784,0,9.282-1.863,12.664-5.246l21.853-21.852c1.725,4.873,2.617,10.032,2.617,15.266c0,25.243-20.537,45.78-45.779,45.78
			c-25.243,0-45.78-20.537-45.78-45.78s20.537-45.779,45.78-45.779c5.879,0,11.632,1.115,17.002,3.266l-22.397,22.397
			C201.408,209.928,201.408,221.29,208.391,228.274z M328.703,53.592c0.001-0.001,0.002-0.003,0.004-0.005l30.46-30.459
			l5.156,23.883l-51.946,51.946l-5.156-23.883L328.703,53.592z M263.125,403.422c-0.2,0.34-0.403,0.678-0.6,1.02
			c-0.069,0.121-0.136,0.244-0.205,0.366c-2.326,4.064-4.431,8.243-6.281,12.53c-13.833,2.994-28.029,4.509-42.255,4.509
			c-109.61,0-198.786-89.175-198.786-198.786S104.174,24.274,213.784,24.274c34.33,0,67.84,8.798,97.501,25.524l-17.559,17.56
			c-0.45,0.451-0.836,0.95-1.152,1.486c-0.633,1.071-0.99,2.284-1.038,3.527c-0.024,0.622,0.029,1.251,0.164,1.874l1.32,6.111
			c-24.139-13.457-51.199-20.504-79.234-20.504c-38.979,0-76.714,13.963-106.252,39.318c-3.144,2.698-3.504,7.432-0.806,10.575
			c2.697,3.142,7.432,3.504,10.574,0.806c26.82-23.022,61.085-35.701,96.483-35.701c30.085,0,58.934,8.927,83.624,25.847
			l2.349,10.88l-19.612,19.612c-19.227-13.884-42.528-21.485-66.361-21.485c-62.507,0-113.359,50.852-113.359,113.359
			c0,33.816,14.934,65.614,40.972,87.242c3.185,2.645,7.913,2.209,10.561-0.978c2.646-3.187,2.209-7.914-0.978-10.561
			c-22.597-18.769-35.557-46.363-35.557-75.704c0-54.236,44.125-98.36,98.36-98.36c19.873,0,39.326,6.07,55.616,17.233
			l-27.335,27.335c-8.69-4.58-18.352-6.984-28.282-6.984c-33.513,0-60.778,27.265-60.778,60.777
			c0,33.512,27.265,60.778,60.778,60.778s60.777-27.265,60.777-60.778c0-9.3-2.127-18.419-6.181-26.7l27.502-27.502
			c10.666,16.063,16.263,34.637,16.263,54.202c0,0.186-0.006,0.371-0.007,0.558c-0.348,2.771-0.548,5.585-0.548,8.449v1.436
			c-5.231,49.345-47.096,87.918-97.806,87.918c-15.43,0-30.198-3.47-43.894-10.311c-3.708-1.852-8.21-0.348-10.06,3.358
			s-0.347,8.209,3.358,10.06c15.797,7.891,32.819,11.892,50.596,11.892c41.689,0,78.189-22.626,97.881-56.239v3.386
			c0,0.983,0.028,1.963,0.071,2.942c0.006,0.142,0.008,0.284,0.015,0.426c0.014,0.288,0.043,0.572,0.061,0.859
			c0.033,0.518,0.069,1.036,0.114,1.552c0.026,0.304,0.044,0.609,0.074,0.912c0.028,0.279,0.065,0.555,0.096,0.834
			c0.033,0.291,0.074,0.581,0.111,0.872c0.066,0.524,0.123,1.049,0.201,1.57c0.089,0.6,0.2,1.193,0.305,1.788
			c0.085,0.479,0.162,0.96,0.257,1.436c0.128,0.643,0.276,1.277,0.423,1.913c0.096,0.418,0.186,0.838,0.29,1.254
			c0.171,0.684,0.362,1.36,0.554,2.036c0.101,0.355,0.197,0.713,0.303,1.066c0.221,0.733,0.462,1.457,0.708,2.179
			c0.096,0.284,0.188,0.569,0.288,0.851c0.281,0.794,0.583,1.577,0.893,2.357c0.079,0.198,0.154,0.397,0.235,0.594
			c0.356,0.87,0.732,1.729,1.123,2.58c0.044,0.095,0.085,0.19,0.129,0.285c1.694,3.648,3.705,7.116,5.997,10.377
			c-28.129,31.235-67.926,49.027-110.127,49.027c-81.724,0-148.212-66.487-148.212-148.212c0-34.022,11.815-67.254,33.267-93.573
			c2.617-3.211,2.136-7.934-1.075-10.551c-3.211-2.618-7.936-2.135-10.551,1.075c-23.629,28.988-36.642,65.584-36.642,103.049
			c0,89.994,73.216,163.21,163.21,163.21c45.895,0,89.204-19.117,120.105-52.718c3.098,2.804,6.457,5.322,10.036,7.519
			C309.609,350.874,280.439,373.827,263.125,403.422z M401.892,448.77l-22.796,20.866l-22.796-20.866l14.369-62.381h16.854
			L401.892,448.77z M359.72,352.829c0.646-0.119,1.294-0.23,1.942-0.338c0.417-0.069,0.834-0.138,1.251-0.202
			c0.921-0.144,1.844-0.278,2.768-0.4c0.954-0.125,1.908-0.241,2.864-0.343c0.451-0.048,0.901-0.094,1.352-0.137
			c0.087-0.008,0.173-0.016,0.26-0.024c1.094-0.101,2.188-0.185,3.282-0.255c0.417-0.026,0.834-0.055,1.251-0.077
			c0.039-0.002,0.078-0.004,0.117-0.006c0.875-0.045,1.75-0.068,2.625-0.093c0.556,0.014,1.107,0.042,1.666,0.042
			c0.559,0,1.111-0.029,1.666-0.042c0.875,0.025,1.75,0.048,2.625,0.093c0.305,0.016,0.611,0.029,0.916,0.047
			c1.276,0.076,2.552,0.179,3.828,0.297c0.506,0.048,1.012,0.099,1.517,0.153c0.956,0.101,1.911,0.218,2.866,0.343
			c0.924,0.122,1.847,0.256,2.77,0.4c0.415,0.064,0.83,0.133,1.245,0.201c0.649,0.109,1.298,0.22,1.946,0.339l-9.556,18.565h-19.642
			L359.72,352.829z M381.214,335.945c-0.06,0.001-0.118-0.008-0.178-0.005c-0.022,0.001-0.045,0.003-0.067,0.004
			c-0.591-0.016-1.18-0.038-1.771-0.047c-0.068-0.001-0.137-0.001-0.205,0c-0.594,0.008-1.185,0.031-1.777,0.047
			c-23.512-0.842-43.311-17.652-48.945-39.636c-0.006-0.024-0.012-0.048-0.018-0.072c-0.184-0.723-0.349-1.452-0.502-2.186
			c-0.033-0.158-0.066-0.317-0.097-0.476c-0.121-0.608-0.228-1.221-0.327-1.837c-0.038-0.238-0.078-0.476-0.113-0.715
			c-0.081-0.554-0.148-1.112-0.212-1.67c-0.031-0.277-0.067-0.553-0.093-0.83c-0.055-0.563-0.093-1.131-0.129-1.699
			c-0.017-0.26-0.04-0.518-0.053-0.778c-0.039-0.823-0.063-1.649-0.063-2.481v-18.423c33.428-2.1,53.137-17.824,62.897-28.701
			c6.869,10.696,20.126,25.491,41.969,28.416v18.708C431.528,311.766,409.146,334.827,381.214,335.945z"/>
	</g>
</g>
<g>
</g>
<g>
</g>
<g>
</g>
<g>
</g>
<g>
</g>
<g>
</g>
<g>
</g>
<g>
</g>
<g>
</g>
<g>
</g>
<g>
</g>
<g>
</g>
<g>
</g>
<g>
</g>
<g>
</g>
</svg>
