<svg xmlns="http://www.w3.org/2000/svg" viewBox="0 0 130.38 50"><defs><style>.cls-1,.cls-2{fill:#fff;}.cls-2{font-size:11.64px;font-family:Ubuntu-Title, Ubuntu-Title;}.cls-3{letter-spacing:0.13em;}</style></defs><title>LogoWhite</title><g id="Layer_2" data-name="Layer 2"><g id="Detalhes_Curso" data-name="Detalhes Curso"><path class="cls-1" d="M2.7,40.19a4.6,4.6,0,0,1-2-1.56A3.93,3.93,0,0,1,0,36.32a7.27,7.27,0,0,1,.51-2.38l6.59-17a7.82,7.82,0,0,1,2.67-3.6,6.65,6.65,0,0,1,4-1.26,6.68,6.68,0,0,1,4,1.26,7.83,7.83,0,0,1,2.67,3.6l6.59,17a7.81,7.81,0,0,1,.5,2.38,3.93,3.93,0,0,1-.7,2.31,4.59,4.59,0,0,1-2,1.56,4.53,4.53,0,0,1-1.83.39,4,4,0,0,1-2.46-.84,4.9,4.9,0,0,1-1.67-2.34l-.43-1.27H9.13L8.67,37.4A4.81,4.81,0,0,1,7,39.72a4,4,0,0,1-2.5.86,4.53,4.53,0,0,1-1.83-.39m9-11.77h4.14L13.76,21Z"/><path class="cls-1" d="M29.29,39.27A4.18,4.18,0,0,1,28,36.21V14a4,4,0,0,1,.58-2.1A4.34,4.34,0,0,1,32.36,9.8a4.1,4.1,0,0,1,2.11.61A4.29,4.29,0,0,1,36,12a4.22,4.22,0,0,1,.55,2.11V36.17a4.16,4.16,0,0,1-4.25,4.32,4.18,4.18,0,0,1-3-1.22"/><path class="cls-1" d="M40,39.27a4.18,4.18,0,0,1-1.27-3.07V14a4,4,0,0,1,.58-2.1A4.34,4.34,0,0,1,43.09,9.8a4.1,4.1,0,0,1,2.11.61A4.3,4.3,0,0,1,46.71,12a4.22,4.22,0,0,1,.55,2.11V36.17A4.16,4.16,0,0,1,43,40.49a4.18,4.18,0,0,1-3-1.22"/><path class="cls-1" d="M50.64,7.51a4.24,4.24,0,0,1-1.26-3.13,4.37,4.37,0,0,1,1.29-3.12,4.48,4.48,0,0,1,1.4-.93A4.14,4.14,0,0,1,53.69,0a4.08,4.08,0,0,1,3.05,1.33A4.31,4.31,0,0,1,58,4.42a4.19,4.19,0,0,1-1.24,3.09,4.38,4.38,0,0,1-6.11,0m0,31.86a4.18,4.18,0,0,1-1.27-3.07V14.1a4,4,0,0,1,.58-2.1A4.33,4.33,0,0,1,53.7,9.89a4.1,4.1,0,0,1,2.11.61,4.29,4.29,0,0,1,1.52,1.56,4.22,4.22,0,0,1,.55,2.11V36.26a4.16,4.16,0,0,1-4.25,4.32,4.19,4.19,0,0,1-3-1.22"/><path class="cls-1" d="M61.06,25.2a11.14,11.14,0,0,1,1.63-2.69,10,10,0,0,1,2.17-2,9.85,9.85,0,0,1,2.46-1.2,8.43,8.43,0,0,1,2.59-.41,6.61,6.61,0,0,1,4.9,1.93V21l3.54-2.12a1.89,1.89,0,0,1,1.07-.34,2,2,0,0,1,1.5.69,5.58,5.58,0,0,1,1.61,4V45.71a4.19,4.19,0,0,1-1.21,3A4,4,0,0,1,78.39,50a4.23,4.23,0,0,1-2.17-.58,4.39,4.39,0,0,1-1.58-1.57A4.16,4.16,0,0,1,74,45.68v-6a8.93,8.93,0,0,1-2.68.73q-.82.07-1.27.07a9.8,9.8,0,0,1-8.68-5.18A11,11,0,0,1,60.1,30a14.05,14.05,0,0,1,.22-2.45,10.21,10.21,0,0,1,.73-2.34M68.54,30a3.29,3.29,0,0,0,0,.58q.45,2.57,3.33,2.56a2.66,2.66,0,0,0,1.57-.8,3.3,3.3,0,0,0,.8-1.76V29.22a3.6,3.6,0,0,0-.77-1.72,2.59,2.59,0,0,0-2.08-1,2.62,2.62,0,0,0-2.15,1.07,3.83,3.83,0,0,0-.71,1.89,3.15,3.15,0,0,0,0,.56"/><path class="cls-1" d="M93.4,40.45q-4.42-.51-6.54-2.89t-2.12-6.8V23.29a4.15,4.15,0,0,1,.58-2.17,4.31,4.31,0,0,1,1.56-1.54A4.23,4.23,0,0,1,89,19a4.06,4.06,0,0,1,3,1.26,4.25,4.25,0,0,1,1.25,3.1v7.36a2.24,2.24,0,0,0,.5,1.61A2.06,2.06,0,0,0,95,33a2.44,2.44,0,0,0,2-.69,2.22,2.22,0,0,0,.49-1.61V23.37A4.27,4.27,0,0,1,98,21.18a4.4,4.4,0,0,1,1.56-1.59,4.13,4.13,0,0,1,2.16-.59,4.22,4.22,0,0,1,2.17.57,4.28,4.28,0,0,1,1.54,1.54,4.22,4.22,0,0,1,.57,2.17v7.47a12.1,12.1,0,0,1-.92,5,7.08,7.08,0,0,1-2.85,3.2,12,12,0,0,1-4.9,1.51,17.68,17.68,0,0,1-1.95.13,18,18,0,0,1-2-.13"/><path class="cls-1" d="M116,19.08a10.42,10.42,0,0,1,1.89-.24,6.49,6.49,0,0,1,4.74,1.85v.11l3.54-1.89a1.88,1.88,0,0,1,1.07-.3,2,2,0,0,1,1.53.69,5.27,5.27,0,0,1,1.57,3.87v13a4.18,4.18,0,0,1-1.2,3.09,4.09,4.09,0,0,1-3,1.2l-3.5-2v.19a6.17,6.17,0,0,1-4.7,1.83,12.14,12.14,0,0,1-2.19-.22,9,9,0,0,1-3.39-1.47,10.77,10.77,0,0,1-2.86-3,11.53,11.53,0,0,1-1.23-2.94,14,14,0,0,1-.41-3.56,11.72,11.72,0,0,1,1.24-4.77,10.73,10.73,0,0,1,2.93-3.62,9.29,9.29,0,0,1,4-1.86m.32,10.8a3.66,3.66,0,0,0,.77,2.3,2.61,2.61,0,0,0,2.1,1,2.73,2.73,0,0,0,1.42-.4,2.82,2.82,0,0,0,1.07-1.17,2.68,2.68,0,0,0,.39-1.1c0-.29,0-.69,0-1.2a3.11,3.11,0,0,0-1.76-2.6,2.82,2.82,0,0,0-1.2-.3,2.43,2.43,0,0,0-1.78.75,3.66,3.66,0,0,0-1,2c0,.13,0,.23,0,.33a3.49,3.49,0,0,1,0,.37"/><text class="cls-2" transform="translate(60.1 17.9) scale(1.01 1)">n</text><text class="cls-2" transform="translate(67.16 17.9) scale(1.01 1)">s</text><text class="cls-2" transform="translate(73.45 17.9) scale(1.01 1)"><tspan class="cls-3">t</tspan><tspan x="5.51" y="0">i</tspan></text><text class="cls-2" transform="translate(82.91 17.9) scale(1.01 1)">t</text><text class="cls-2" transform="translate(88.41 17.9) scale(1.01 1)">u</text><text class="cls-2" transform="translate(95.52 17.9) scale(1.01 1)">t</text><text class="cls-2" transform="translate(100.95 17.9) scale(1.01 1)">o</text></g></g></svg>